<svg xmlns="http://www.w3.org/2000/svg" version="1.1" xmlns:xlink="http://www.w3.org/1999/xlink" xmlns:svgjs="http://svgjs.dev/svgjs" viewBox="0 0 1920 1080" style="overflow: hidden; height: 85vh;" class="overflow-hidden rounded-md drop-shadow-lg transition duration-300">
	<rect width="1920" height="1080" fill="#76dad0" />
	<g clip-path="url(&quot;#SvgjsClipPath1692&quot;)">
		<g transform="matrix(0.6920872766248555,0.9184308365543867,-0.9184308365543867,0.6920872766248555,784.3919520748211,-694.0733502105809)">
			<path d="M0,-1080C-6.168727844765203,-979.8421687582893,-29.367485538328793,-702.9538614273807,-37.01236706859122,-479.0530125497359C-44.65724859885364,-255.15216367209106,-47.96437148018203,36.000458424032985,-45.869289181574544,263.405093265869C-43.77420688296706,490.80972810770504,-43.19997797218386,680.2488026890243,-24.441873276946282,885.3747965012805C-5.683768581708701,1090.5007903135365,62.605693443693234,1281.7235222229526,66.67933898985095,1494.161056139406C70.75298453600865,1706.5985900558592,11.113223164975158,2049.026842689901,0,2160L 1920 2160 L 1920 -1080 Z" fill="url(&quot;#SvgjsLinearGradient1684&quot;)" />
			<path d="M240,-1080C233.12855694563515,-1001.7955360578565,200.77716240095614,-771.383174406936,198.77134167381095,-610.7732163471384C196.76552094666576,-450.1632582873408,232.06547352037956,-263.8007269534097,227.96507563712885,-116.34025164121459C223.86467775387814,31.12022367098055,181.2908773515531,115.83240707879483,174.1689543743067,273.98963552603243C167.04703139706032,432.14686397327,182.5947241970331,674.652494180495,185.2335377736505,832.603119042211C187.87235135026793,990.553743903927,171.2454462602006,1069.657714275839,190.00183583401127,1221.6933846963286C208.75822540782195,1373.7290551168182,289.43884785551654,1588.4327056812035,297.7718752165147,1744.8171415651486C306.1049025775128,1901.2015774490937,249.6286458694191,2090.8028569275248,240,2160L 1920 2160 L 1920 -1080 Z" fill="url(&quot;#SvgjsLinearGradient1685&quot;)" />
			<path d="M480,-1080C489.97943131358943,-961.9761938421627,544.3290940054354,-591.6549223203692,539.8765878815366,-371.85716305297666C535.4240817576377,-152.05940378558407,464.00845651621097,34.128141406892496,453.28496325660694,238.78655560435547C442.5614699970029,443.44496980181844,481.95306670626235,643.112708749809,475.5356283239124,856.0933221318012C469.1181899415625,1069.0739355137935,414.0362710164927,1299.3524562516086,414.7803329625073,1516.6702358963084C415.5243949085219,1733.9880155410083,469.13005549375123,2052.778372649385,480,2160L 1920 2160 L 1920 -1080 Z" fill="url(&quot;#SvgjsLinearGradient1686&quot;)" />
			<path d="M720,-1080C717.3800128793841,-996.9560281430023,701.8012376343104,-738.3725589379609,704.280077276305,-581.7361688580137C706.7589169182995,-425.0997787780665,743.2197263957823,-293.20528803698477,734.8730378519672,-140.18165952031674C726.526349308152,12.841968996351284,648.0145198355798,182.02399154695573,654.1999460134143,336.40560224199453C660.3853721912488,490.78721293703336,760.5340366236773,638.1200504553299,771.9855949189741,786.1080046499161C783.437153214271,934.0959588445023,720.7756287085174,1076.3806538431988,722.9092957851956,1224.3333274095119C725.0429628618738,1372.286000975825,785.2724800099094,1517.8796006160464,784.7875973790434,1673.8240460477944C784.3027147481774,1829.7684914795423,730.7979328965073,2078.970674341299,720,2160L 1920 2160 L 1920 -1080 Z" fill="url(&quot;#SvgjsLinearGradient1687&quot;)" />
			<path d="M960,-1080C948.7862934649803,-971.6255760356769,900.1278710764228,-656.1215183259442,892.7177607898816,-429.75345621406154C885.3076505033404,-203.38539410217894,897.5966513947747,67.01902879270992,915.5393382807525,278.20837267129554C933.4820251667304,489.3977165498811,998.9808874338596,634.6707034030615,1000.3738821057486,837.3826070574521C1001.7668767776377,1040.0945107118428,930.6262866630451,1274.0435624405484,923.897306312087,1494.4797945976397C917.168325961129,1714.916026754731,953.9828843853478,2049.0799657662733,960,2160L 1920 2160 L 1920 -1080 Z" fill="url(&quot;#SvgjsLinearGradient1688&quot;)" />
			<path d="M1200,-1080C1202.4417125106738,-997.6180252493716,1210.786111335532,-762.8146499312757,1214.6502750640425,-585.7081514962299C1218.514438792553,-408.60165306118415,1236.4230002464928,-208.28128971975715,1223.184982371063,-17.361009389725353C1209.946964495633,173.55927094030645,1146.4404862640622,382.5869462889324,1135.2221678114631,559.8135304839609C1124.003849358864,737.0401146789894,1143.967190279163,869.0402910815114,1155.8750716554684,1045.9984957804459C1167.7829530317738,1222.9567004793803,1199.3153013452065,1435.8958413076416,1206.6694560692952,1621.5627586775672C1214.0236107933838,1807.2296760474928,1201.1115760115492,2070.2604597795944,1200,2160L 1920 2160 L 1920 -1080 Z" fill="url(&quot;#SvgjsLinearGradient1689&quot;)" />
			<path d="M1440,-1080C1432.6507091823983,-947.4559756553922,1401.996793682136,-565.3673770758148,1395.904255094389,-284.73585393235305C1389.8117165066421,-4.104330788891218,1395.76565805998,326.364445323595,1403.444768473518,603.7891388607711C1411.123878887056,881.2138323979473,1435.8863789878703,1120.4438304341654,1441.9789175756173,1379.8123072907035C1448.0714561633642,1639.1807841472416,1440.3298195959362,2029.968717881784,1440,2160L 1920 2160 L 1920 -1080 Z" fill="url(&quot;#SvgjsLinearGradient1690&quot;)" />
			<path d="M1680,-1080C1672.029450741869,-998.5343469111942,1629.638111400048,-774.5567402009555,1632.176704451214,-591.2060814671654C1634.7152975023798,-407.85542273337535,1682.3071977405536,-171.74399758170358,1695.2315583069958,20.103952402740063C1708.155918873438,211.95190238718368,1719.3228633493625,372.8371208671276,1709.7228678498668,559.8816184394965C1700.1228723503712,746.9261160118654,1632.0803864948864,955.071090086653,1637.6315853100214,1142.3709378369533C1643.1827841251563,1329.6707855872537,1735.9686582923473,1514.0758612474572,1743.030060740677,1683.6807049412982C1750.0914631890068,1853.2855486351393,1690.5050101234463,2080.6134508235496,1680,2160L 1920 2160 L 1920 -1080 Z" fill="url(&quot;#SvgjsLinearGradient1691&quot;)" />
		</g>
	</g>
	<defs>
		<linearGradient x1="0.1" y1="0" x2="0" y2="1" id="SvgjsLinearGradient1684">
			<stop stop-color="#76dad0" offset="0" />
			<stop stop-color="#76dabf" offset="0" />
		</linearGradient>
		<linearGradient x1="0.1" y1="0" x2="0" y2="1" id="SvgjsLinearGradient1685">
			<stop stop-color="#83ded5" offset="0" />
			<stop stop-color="#83dec6" offset="0.125" />
		</linearGradient>
		<linearGradient x1="0.1" y1="0" x2="0" y2="1" id="SvgjsLinearGradient1686">
			<stop stop-color="#91e1d9" offset="0" />
			<stop stop-color="#91e1cc" offset="0.25" />
		</linearGradient>
		<linearGradient x1="0.1" y1="0" x2="0" y2="1" id="SvgjsLinearGradient1687">
			<stop stop-color="#9ee5de" offset="0" />
			<stop stop-color="#9ee5d2" offset="0.375" />
		</linearGradient>
		<linearGradient x1="0.1" y1="0" x2="0" y2="1" id="SvgjsLinearGradient1688">
			<stop stop-color="#ace8e2" offset="0" />
			<stop stop-color="#ace8d8" offset="0.5" />
		</linearGradient>
		<linearGradient x1="0.1" y1="0" x2="0" y2="1" id="SvgjsLinearGradient1689">
			<stop stop-color="#b9ece7" offset="0" />
			<stop stop-color="#b9ecde" offset="0.625" />
		</linearGradient>
		<linearGradient x1="0.1" y1="0" x2="0" y2="1" id="SvgjsLinearGradient1690">
			<stop stop-color="#c6f0ec" offset="0" />
			<stop stop-color="#c6f0e5" offset="0.75" />
		</linearGradient>
		<linearGradient x1="0.1" y1="0" x2="0" y2="1" id="SvgjsLinearGradient1691">
			<stop stop-color="#d4f3f0" offset="0" />
			<stop stop-color="#d4f3eb" offset="0.875" />
		</linearGradient>
		<clipPath id="SvgjsClipPath1692">
			<rect width="1920" height="1080" />
		</clipPath>
	</defs>
</svg>
